<?xml version="1.0" standalone="no"?>
<!DOCTYPE svg PUBLIC "-//W3C//DTD SVG 20010904//EN"
 "http://www.w3.org/TR/2001/REC-SVG-20010904/DTD/svg10.dtd">
<svg version="1.0" xmlns="http://www.w3.org/2000/svg"
 width="232.000000pt" height="232.000000pt" viewBox="0 0 232.000000 232.000000"
 preserveAspectRatio="xMidYMid meet">

<g transform="translate(0.000000,232.000000) scale(0.100000,-0.100000)"
fill="#000000" stroke="none">
<path d="M0 1160 l0 -1160 1160 0 1160 0 -2 1158 -3 1157 -1157 3 -1158 2 0
-1160z m540 334 l425 -17 88 -63 c48 -35 92 -64 98 -64 5 0 46 27 91 59 97 72
46 64 598 91 471 23 485 23 412 5 -29 -7 -58 -19 -65 -27 -7 -8 -19 -18 -27
-23 -10 -6 -9 -3 2 7 34 31 22 40 -39 34 -32 -3 -215 -15 -408 -27 l-350 -21
-95 -72 c-52 -40 -101 -76 -108 -80 -8 -5 -52 22 -125 76 l-112 84 -390 22
c-214 12 -406 22 -427 21 -20 -1 -44 4 -55 10 -14 9 -10 10 22 6 22 -2 231
-12 465 -21z m-98 -198 c-2 -26 -10 -47 -18 -50 -11 -4 -14 8 -14 61 0 62 1
65 18 50 13 -12 16 -27 14 -61z m229 31 c-6 -6 -8 -29 -5 -51 5 -31 2 -45 -10
-55 -14 -12 -16 -6 -16 69 0 83 0 83 20 65 13 -12 17 -22 11 -28z m189 -1 c-5
-5 -10 -26 -10 -46 0 -20 -5 -41 -12 -48 -15 -15 -158 -17 -158 -2 0 6 32 10
75 10 l75 0 0 67 c0 66 0 66 20 48 14 -13 17 -22 10 -29z m895 34 c-4 -6 -66
-10 -154 -10 -101 0 -151 -4 -159 -12 -7 -7 -12 -29 -12 -49 0 -21 -4 -41 -10
-44 -6 -4 -10 13 -10 43 0 76 12 81 198 81 100 1 151 -2 147 -9z m-107 -67
c-26 -2 -71 -2 -100 0 -29 2 -8 3 47 3 55 0 79 -1 53 -3z m-301 -95 c67 -51
120 -94 119 -96 -2 -1 -30 6 -63 16 -42 13 -87 40 -151 89 -50 39 -88 73 -85
77 22 22 67 0 180 -86z m-217 78 c0 -12 -191 -142 -230 -157 -95 -35 -91 -28
34 65 103 77 136 96 162 96 19 0 34 -2 34 -4z m-522 -48 c-3 -8 -27 -11 -74
-9 -101 3 -106 21 -5 21 59 0 82 -3 79 -12z m1142 2 c-20 -13 -300 -13 -300 0
0 6 59 10 158 10 105 0 152 -4 142 -10z m-46 -252 c7 -5 5 -8 -6 -8 -19 0 -35
-37 -21 -50 4 -5 28 -10 53 -13 25 -2 -9 -3 -75 -3 l-120 1 3 33 c4 41 -7 41
-37 -3 l-24 -36 -141 3 -141 3 2 33 c1 28 -2 33 -20 30 -13 -2 -25 -16 -33
-38 -17 -47 -17 -26 0 29 7 26 16 40 20 33 4 -7 22 -12 39 -12 19 0 27 -3 20
-8 -7 -4 -14 -19 -15 -32 -3 -24 0 -25 47 -25 44 0 50 3 53 22 5 31 26 45 64
40 l33 -4 -37 -1 c-41 -2 -53 -21 -15 -23 21 -1 21 -1 -2 -8 -14 -4 -26 -12
-29 -19 -3 -9 17 -12 71 -12 78 0 87 5 87 51 0 10 4 19 10 19 5 0 7 -8 3 -17
-6 -17 -5 -17 14 0 30 27 46 22 41 -13 -5 -35 13 -44 73 -38 29 2 34 7 37 31
2 17 -1 27 -10 28 -7 0 -3 4 10 9 12 5 23 17 23 27 1 15 2 15 6 -2 3 -11 10
-23 17 -27z m-777 2 c20 0 22 -2 12 -19 -20 -32 -4 -49 48 -54 39 -3 37 -4
-12 -3 l-60 1 3 33 c5 47 -29 45 -47 -3 -12 -34 -14 -35 -67 -35 -41 0 -54 4
-54 15 0 8 -4 15 -9 15 -5 0 -14 -7 -21 -15 -9 -11 -34 -15 -97 -15 -91 0
-101 6 -89 55 5 20 13 25 36 25 22 0 30 -5 30 -17 0 -14 -2 -15 -9 -5 -14 23
-46 10 -46 -18 0 -24 3 -25 62 -28 l62 -3 15 36 c10 23 22 35 35 35 11 0 27 3
36 7 15 5 16 1 10 -36 l-7 -42 48 3 c43 3 48 6 57 33 18 61 17 59 29 47 7 -7
22 -12 35 -12z"/>
<path d="M700 961 c0 -5 -3 -16 -6 -25 -9 -22 19 -21 39 2 23 25 21 32 -8 32
-14 0 -25 -4 -25 -9z"/>
</g>
</svg>
